# xmcd
#
# Track frame offsets: 
#        150
#        15507
#        26915
#        36790
#        49035
#        60177
#        72200
#        83027
#        95400
#        108542
#        121117
#        132690
#        144607
#        161275
#        172152
#        183592
#        199370
#        210060
#        221375
#        234195
#        245355
#        256987
#        270090
#
# Disc length: 3739 seconds
#
# Revision: 0
# Processed by: cddbd v1.4PL0 Copyright (c) Steve Scherf et al.
# Submitted via: ExactAudioCopy v0.95a3
#
DISCID=360e9917
DTITLE=John Lee Hooker - Collection Or
DYEAR=1996
DGENRE=
TTITLE0=Tupelo
TTITLE1=Boogie Chillun
TTITLE2=Dimples
TTITLE3=Drug Store Woman
TTITLE4=Boom Boom
TTITLE5=Frisco Blues
TTITLE6=No Shoes
TTITLE7=Hobo Blues
TTITLE8=Baby Lee
TTITLE9=Trouble Blues
TTITLE10=Little Wheel
TTITLE11=Whiskhey And Wimmen
TTITLE12=Process
TTITLE13=Send Me Your Pillow
TTITLE14=Good Rockin' Mama
TTITLE15=Thelma
TTITLE16=She's Mine (Keep Your Hands To Yourself)
TTITLE17=What Do You Say
TTITLE18=Lost A Good Girl
TTITLE19=Let's Make It
TTITLE20=Hard Headed Woman
TTITLE21=I'm Going Upstairs
TTITLE22=I'm Leaving
EXTD=
EXTT0=
EXTT1=
EXTT2=
EXTT3=
EXTT4=
EXTT5=
EXTT6=
EXTT7=
EXTT8=
EXTT9=
EXTT10=
EXTT11=
EXTT12=
EXTT13=
EXTT14=
EXTT15=
EXTT16=
EXTT17=
EXTT18=
EXTT19=
EXTT20=
EXTT21=
EXTT22=
PLAYORDER=
